<?xml version="1.0" encoding="UTF-8"?>
<!DOCTYPE svg PUBLIC "-//W3C//DTD SVG 1.1//EN" "http://www.w3.org/Graphics/SVG/1.1/DTD/svg11.dtd">
<!-- Creator: CorelDRAW 2021 (64-Bit) -->
<svg xmlns="http://www.w3.org/2000/svg" xml:space="preserve" width="190mm" height="170mm" version="1.1" style="shape-rendering:geometricPrecision; text-rendering:geometricPrecision; image-rendering:optimizeQuality; fill-rule:evenodd; clip-rule:evenodd"
viewBox="0 0 19000 17000"
 xmlns:xlink="http://www.w3.org/1999/xlink"
 xmlns:xodm="http://www.corel.com/coreldraw/odm/2003">
 <defs>
  <style type="text/css">
   <![CDATA[
    .str0 {stroke:#2ABFC4;stroke-width:800;stroke-miterlimit:22.9256}
    .fil0 {fill:#2ABFC4}
   ]]>
  </style>
 </defs>
 <g id="Capa_x0020_1">
  <metadata id="CorelCorpID_0Corel-Layer"/>
  <path class="fil0 str0" d="M5570.19 11101.41c-99.25,602.78 -642.01,1988 -919.94,2567.54 -194.07,404.65 -611.79,1215.47 -1057.92,1395.35 -202.14,81.51 -435.87,-16.38 -523.96,-214.2 -225.8,-507.1 696.03,-1800.51 1020.95,-2211.52 238.16,-301.28 490.62,-583.06 751.2,-864.79 202.4,-218.85 393.68,-404.27 586.98,-608.14 30.43,-32.1 167.67,-215.89 142.69,-64.24zm792.36 -776.79c28.21,-53.46 205.47,-213.84 260.56,-271.97 51.44,-54.27 212.21,-247.99 260.83,-267.51 157.35,-212.81 397.83,-450.5 575.73,-659.79 950.92,-1118.6 1924.67,-2264.5 2893.1,-3364.12 195.35,-221.8 402.06,-425.68 599.96,-642.19 173.14,-189.43 413.21,-503.13 584.93,-661.2l2.77 3.43c32.19,23.81 -274.38,3008.69 2370.32,3157.67 735.05,41.42 1403.37,-208.67 2012.83,-601.55 151.62,-97.74 700.22,-511.12 787.92,-635.81 245.21,-348.59 -123.08,-691.6 -503.58,-356.9 -130.13,114.48 -221.98,236.06 -368.01,342.1 -402.39,292.15 -885.46,546.99 -1374.53,640.96 -775.16,148.94 -1572.81,-101.37 -2003.5,-785.73 -394.88,-627.49 -420.96,-1505.02 -310.16,-2217.13 287.13,-1845.19 2161.63,-2650.66 2976.31,-980.26 75.41,154.63 138.71,332.38 294.62,425.1 152.51,90.68 338.58,52.09 417.48,-113.72 130.04,-273.29 -190.27,-711.16 -342.63,-941.2 -424.54,-640.96 -1245.3,-970.07 -1996.06,-805.82 -651.92,142.62 -1249.51,650.85 -1569.74,1227.26 -198.3,356.89 -225.4,657.02 -530.34,971.91 -237.6,245.37 -476.24,477.07 -706.4,732.61 -237.79,264.04 -447.58,479.14 -703.29,725.33 -242.89,233.85 -465.14,504.09 -689.05,757.31 -454.83,514.35 -886.44,1049.35 -1326.7,1576.69 -285.15,341.55 -557.35,693.28 -832.42,1041.06l0 143.34c-88.22,44.11 -83.61,41.76 -109.22,122.1l270.27 14.64 0 200 -117.13 0c-29.59,29.59 -43.89,37.8 -58.56,73.21 -34.72,83.83 0.97,15.71 -43.92,73.21 -18.38,23.55 -17.72,40.73 -58.57,87.84l-102.49 131.77 -29.28 102.49 -58.56 102.49 -102.49 131.77 -14.64 0 0 43.92c-22.27,22.27 -43.93,38.77 -43.93,73.21l-29.28 29.28 -43.39 0c-0.63,20.4 -0.53,43.41 -0.53,73.21l-14.65 0 0 14.64 -200 0 0 -214.64 14.65 0 0 -102.49 43.92 -175.69 0 -87.85 58.56 -248.9 87.85 -87.85 146.41 -307.46 29.29 -29.29c28.23,-39.16 7.76,-43.62 40.04,-63.17 381.33,-1233.21 1435.46,-4422.55 1562.46,-4810.61 72.25,-220.78 138.43,-444.07 218.71,-661.75 78.57,-213.06 150.88,-457.72 -152.44,-520.61 -243.46,-50.48 -330.33,141.7 -458.79,299.01 -126.4,154.78 -236.54,304.9 -350.46,468.93 -352.42,507.4 -938.87,1502.81 -1591.45,1602.89 -999.93,153.34 -992.78,-1460.4 -631.62,-2043.29 138.22,-223.02 95.76,-402.41 -198.21,-418.11 -226.65,-12.09 -322.57,205.85 -424.16,368.87 -248.07,398.13 -343.44,840.88 -283.5,1305.76 117.4,910.34 751.08,1516 1705.37,1325.76 796.4,-158.78 1223.52,-949.78 1594.09,-1599.09 11.28,16.16 -1545.55,4731.11 -1694.48,5169.65 -59.73,175.91 -137.23,480.68 -219.57,629.53 -78.86,142.54 -264.76,287.15 -383.58,410.33 -836.44,867.08 -1498.72,1511.28 -2235.19,2528.36 -436.44,602.74 -1056.3,1523.83 -789.72,2295.09 145.26,420.24 530.37,625.57 964.69,596.2 386.11,-26.11 711.66,-245.34 966.63,-523.93 548.96,-599.77 864.99,-1428.49 1135.19,-2183.65 154.23,-431.05 291.85,-866.41 418.73,-1306.23 127.08,-440.51 229.9,-905.98 402,-1329.42z"/>
 </g>
</svg>
